HIERARCHY
ROOT Hips
{
	OFFSET 0.000000 0.000000 0.000000 
	CHANNELS 6 Xposition Yposition Zposition Zrotation Yrotation Xrotation
	JOINT LeftUpLeg
	{
		OFFSET 1.363060 -1.794630 0.839290 
		CHANNELS 3 Zrotation Yrotation Xrotation
		JOINT LeftLeg
		{
			OFFSET 2.448110 -6.726130 0.000000 
			CHANNELS 3 Zrotation Yrotation Xrotation
			JOINT LeftFoot
			{
				OFFSET 2.562200 -7.039590 0.000000 
				CHANNELS 3 Zrotation Yrotation Xrotation
				JOINT LeftToeBase
				{
					OFFSET 0.157640 -0.433110 2.322550 
					CHANNELS 3 Zrotation Yrotation Xrotation
					End Site
					{
						OFFSET 0.000000 0.000000 0.000000 
					}
				}
			}
		}
	}
	JOINT RightUpLeg
	{
		OFFSET -1.305520 -1.794630 0.839290 
		CHANNELS 3 Zrotation Yrotation Xrotation
		JOINT RightLeg
		{
			OFFSET -2.542530 -6.985550 0.000000 
			CHANNELS 3 Zrotation Yrotation Xrotation
			JOINT RightFoot
			{
				OFFSET -2.568260 -7.056230 0.000000 
				CHANNELS 3 Zrotation Yrotation Xrotation
				JOINT RightToeBase
				{
					OFFSET -0.164730 -0.452590 2.363150 
					CHANNELS 3 Zrotation Yrotation Xrotation
					End Site
					{
						OFFSET 0.000000 0.000000 0.000000 
					}
				}
			}
		}
	}
	JOINT Spine
	{
		OFFSET 0.028270 2.035590 -0.193380 
		CHANNELS 3 Zrotation Yrotation Xrotation
		JOINT Spine1
		{
			OFFSET 0.056720 2.048850 -0.042750 
			CHANNELS 3 Zrotation Yrotation Xrotation
			JOINT Neck1
			{
				OFFSET -0.054170 1.746240 0.172020 
				CHANNELS 3 Zrotation Yrotation Xrotation
				JOINT Head
				{
					OFFSET 0.104070 1.761360 -0.123970 
					CHANNELS 3 Zrotation Yrotation Xrotation
					End Site
					{
						OFFSET 0.000000 0.000000 0.000000 
					}
				}
			}
			JOINT LeftArm
			{
				OFFSET 3.362410 1.200890 -0.311210 
				CHANNELS 3 Zrotation Yrotation Xrotation
				JOINT LeftForeArm
				{
					OFFSET 4.983000 -0.000000 -0.000000 
					CHANNELS 3 Zrotation Yrotation Xrotation
					JOINT LeftHand
					{
						OFFSET 3.483560 -0.000000 -0.000000 
						CHANNELS 3 Zrotation Yrotation Xrotation
						JOINT LeftHandIndex1
						{
							OFFSET 0.715260 -0.000000 -0.000000 
							CHANNELS 3 Zrotation Yrotation Xrotation
							End Site
							{
								OFFSET 0.000000 0.000000 0.000000 
							}
						}
					}
				}
			}
			JOINT RightArm
			{
				OFFSET -3.136600 1.374050 -0.404650 
				CHANNELS 3 Zrotation Yrotation Xrotation
				JOINT RightForeArm
				{
					OFFSET -5.241900 -0.000000 -0.000000 
					CHANNELS 3 Zrotation Yrotation Xrotation
					JOINT RightHand
					{
						OFFSET -3.444170 -0.000000 -0.000000 
						CHANNELS 3 Zrotation Yrotation Xrotation
						JOINT RightHandIndex1
						{
							OFFSET -0.622530 -0.000000 -0.000000 
							CHANNELS 3 Zrotation Yrotation Xrotation
							End Site
							{
								OFFSET 0.000000 0.000000 0.000000 
							}
						}
					}
				}
			}
		}
	}
}
MOTION
Frames: 13
Frame Time: 0.041667
-3.842548 17.145550 -5.739723 -177.560187 -0.964424 176.113967 -30.406727 23.808978 -15.768554 1.423768 9.486376 25.105732 -0.229643 5.113457 -12.910458 0.027300 1.066200 2.931000 29.645662 -18.660861 20.755340 0.065065 -4.596158 15.080855 0.280206 -4.063943 -9.998435 -0.265400 3.314100 -9.154400 0.691080 3.309594 -1.903112 -7.214297 1.473625 -0.151017 7.352108 19.220143 18.060729 -0.137200 10.406000 5.963900 -75.699564 -7.628108 30.726896 17.831715 -30.666210 -7.051820 -0.170326 -2.566920 -24.120057 -7.125000 0.000000 0.000000 74.430827 -16.278112 18.722043 -7.828920 22.287350 -2.753248 1.025705 0.069244 18.257338 7.125000 0.000000 0.000000 
-3.855048 17.143750 -5.754659 -177.779550 -1.216990 176.186008 -30.716275 23.805505 -15.632374 1.379293 9.411589 24.858486 -0.211225 4.984614 -12.808111 0.027300 1.067500 2.934500 29.188906 -18.969800 19.830447 -0.101238 -5.097897 16.466084 0.154340 -3.422538 -9.604801 -0.295500 3.495200 -9.660600 0.687980 3.238768 -1.907083 -7.197046 1.436022 -0.233779 7.266459 19.278422 18.060036 -0.185600 10.437000 5.984800 -75.852817 -7.316862 31.363366 18.050897 -30.916658 -7.153845 -0.141684 -2.562910 -24.207320 -7.125000 0.000000 0.000000 74.344275 -16.364300 18.604760 -7.719685 22.152339 -2.716450 1.018040 0.080792 18.298920 7.125000 0.000000 0.000000 
-3.868289 17.141207 -5.769172 -178.009016 -1.454135 176.262238 -31.045338 23.780394 -15.493109 1.335717 9.338517 24.615002 -0.197140 4.888445 -12.736376 0.027900 1.078500 2.964900 28.680265 -19.320038 18.866351 -0.286079 -5.612175 17.901992 0.023962 -2.733333 -9.127110 -0.323400 3.655100 -10.108200 0.683825 3.171865 -1.908770 -7.183786 1.401448 -0.303756 7.178103 19.334062 18.052453 -0.236600 10.467400 6.002600 -76.003267 -6.994545 31.999261 18.234871 -31.132909 -7.237184 -0.113184 -2.559089 -24.302291 -7.125000 0.000000 0.000000 74.249062 -16.432556 18.524740 -7.632216 22.044971 -2.687551 1.012373 0.092309 18.298400 7.125000 0.000000 0.000000 
-3.881742 17.138029 -5.783472 -178.229047 -1.672326 176.344665 -31.368527 23.735699 -15.368639 1.295960 9.272906 24.394053 -0.185856 4.816129 -12.694680 0.029000 1.098600 3.020200 28.155095 -19.699097 17.864424 -0.488514 -6.135525 19.379302 -0.105231 -2.020365 -8.566412 -0.349500 3.798300 -10.509800 0.680193 3.110343 -1.907817 -7.173541 1.370624 -0.356799 7.086810 19.387303 18.036064 -0.291100 10.497800 6.015700 -76.148164 -6.669636 32.645458 18.379859 -31.311559 -7.299178 -0.086032 -2.555468 -24.418712 -7.125000 0.000000 0.000000 74.148567 -16.477677 18.456308 -7.561657 21.958453 -2.664921 1.006962 0.100312 18.285192 7.125000 0.000000 0.000000 
-3.895194 17.134216 -5.797560 -178.409230 -1.864180 176.428551 -31.648395 23.672152 -15.266721 1.263938 9.221033 24.217804 -0.176235 4.763619 -12.687726 0.030500 1.127400 3.099500 27.651841 -20.098954 16.834613 -0.707374 -6.665145 20.889478 -0.227981 -1.306897 -7.919099 -0.375000 3.933400 -10.889300 0.679440 3.054035 -1.903365 -7.167129 1.343508 -0.390138 6.995289 19.441522 18.009903 -0.346200 10.529200 6.021200 -76.286338 -6.351910 33.301677 18.479985 -31.446209 -7.336232 -0.059980 -2.552352 -24.558286 -7.125000 0.000000 0.000000 74.034021 -16.499072 18.424554 -7.509933 21.896667 -2.649148 1.002819 0.106449 18.247014 7.125000 0.000000 0.000000 
-3.908118 17.129873 -5.811437 -178.529161 -2.024736 176.512744 -31.860027 23.594838 -15.204463 1.243011 9.190106 24.108767 -0.165698 4.717529 -12.719593 0.032600 1.164800 3.202400 27.203221 -20.502381 15.780054 -0.941207 -7.198519 22.425398 -0.340564 -0.611458 -7.181152 -0.399000 4.055700 -11.233400 0.683032 3.006161 -1.895719 -7.163661 1.321249 -0.404980 6.904094 19.495399 17.975324 -0.401200 10.561000 6.020800 -76.418136 -6.050357 33.967578 18.529022 -31.529928 -7.344625 -0.035281 -2.549892 -24.713394 -7.125000 0.000000 0.000000 73.910162 -16.497341 18.423000 -7.478980 21.861417 -2.640733 1.000364 0.110276 18.195065 7.125000 0.000000 0.000000 
-3.920511 17.125212 -5.824996 -178.580191 -2.155265 176.601016 -31.990877 23.505030 -15.191956 1.234870 9.183470 24.077541 -0.152652 4.669921 -12.789429 0.035100 1.208600 3.322900 26.832238 -20.890896 14.698401 -1.190253 -7.737147 23.991749 -0.441180 0.054379 -6.355257 -0.418900 4.154200 -11.510900 0.692525 2.962369 -1.885454 -7.160022 1.301640 -0.404475 6.812325 19.552936 17.933748 -0.455500 10.594500 6.014800 -76.544546 -5.770030 34.634388 18.522578 -31.557781 -7.321987 -0.012257 -2.548160 -24.876663 -7.125000 0.000000 0.000000 73.772885 -16.467820 18.446536 -7.466621 21.849094 -2.638860 0.999987 0.112914 18.138866 7.125000 0.000000 0.000000 
-3.931846 17.120763 -5.837283 -178.549323 -2.262836 176.696859 -32.029473 23.406040 -15.239382 1.238617 9.199323 24.119507 -0.134990 4.605788 -12.883954 0.038200 1.261100 3.467600 26.561988 -21.254207 13.569525 -1.456550 -8.286131 25.602473 -0.527408 0.674818 -5.436161 -0.435500 4.234700 -11.737800 0.708699 2.921010 -1.873889 -7.157971 1.283097 -0.393977 6.719868 19.612062 17.887161 -0.509000 10.628900 6.008600 -76.668434 -5.524223 35.286053 18.454384 -31.521270 -7.265476 0.009726 -2.547707 -25.016250 -7.125000 0.000000 0.000000 73.621171 -16.414785 18.524727 -7.482630 21.872053 -2.646500 1.001423 0.116066 18.049558 7.125000 0.000000 0.000000 
-3.941803 17.116420 -5.847453 -178.471924 -2.351694 176.796326 -32.012738 23.313214 -15.337356 1.250461 9.230681 24.211072 -0.112896 4.520303 -12.986491 0.041700 1.317800 3.623600 26.360665 -21.572959 12.389242 -1.745735 -8.851672 27.282724 -0.600685 1.248423 -4.430652 -0.446500 4.287200 -11.886100 0.729866 2.879482 -1.860839 -7.146039 1.264623 -0.379497 6.625652 19.674562 17.833729 -0.561300 10.664600 6.002000 -76.796783 -5.321366 35.898740 18.320711 -31.415190 -7.173863 0.030675 -2.547964 -25.106226 -7.125000 0.000000 0.000000 73.453145 -16.328189 18.649928 -7.525116 21.924957 -2.662783 1.005128 0.120643 17.931416 7.125000 0.000000 0.000000 
-3.950171 17.112289 -5.854762 -178.387720 -2.426019 176.898239 -31.984683 23.230013 -15.468880 1.264952 9.267157 24.318735 -0.088654 4.420605 -13.079571 0.045800 1.381600 3.799500 26.190525 -21.828031 11.150873 -2.064989 -9.438930 29.057808 -0.659632 1.759279 -3.348747 -0.454700 4.325700 -11.994700 0.752578 2.839492 -1.846476 -7.122356 1.247365 -0.366758 6.526257 19.736424 17.771629 -0.615500 10.700100 5.998000 -76.921073 -5.167321 36.472669 18.123511 -31.239714 -7.048907 0.050898 -2.549288 -25.146550 -7.125000 0.000000 0.000000 73.277855 -16.204540 18.818226 -7.596186 22.008232 -2.688117 1.009641 0.126264 17.779629 7.125000 0.000000 0.000000 
-3.956845 17.107734 -5.859105 -178.363281 -2.483495 176.989980 -32.015658 23.188009 -15.606791 1.275556 9.296784 24.402402 -0.063108 4.303278 -13.140786 0.050500 1.450100 3.988300 25.968507 -22.008389 9.868936 -2.423036 -10.049746 30.950716 -0.708367 2.220942 -2.189924 -0.454900 4.327000 -11.998500 0.772062 2.804304 -1.829720 -7.074525 1.234023 -0.361598 6.424415 19.798457 17.696705 -0.670500 10.735600 5.993700 -77.040320 -5.061958 36.997135 17.865558 -30.997225 -6.893355 0.069918 -2.551686 -25.131266 -7.125000 0.000000 0.000000 73.101588 -16.041914 19.021305 -7.697609 22.121315 -2.722957 1.014537 0.133532 17.592248 7.125000 0.000000 0.000000 
-3.962565 17.102332 -5.861435 -178.433264 -2.512193 177.064598 -32.148998 23.187773 -15.723200 1.277489 9.310474 24.432691 -0.041780 4.198350 -13.171786 0.055400 1.518300 4.176100 25.642020 -22.098538 8.561133 -2.826047 -10.681309 32.969504 -0.746558 2.622264 -0.958451 -0.450400 4.305400 -11.937500 0.784132 2.782886 -1.810018 -7.007402 1.229355 -0.364593 6.321421 19.858166 17.608262 -0.726700 10.769800 5.985500 -77.154820 -4.994764 37.468596 17.551147 -30.691249 -6.710400 0.086886 -2.554596 -25.064767 -7.125000 0.000000 0.000000 72.933108 -15.846924 19.227677 -7.822503 22.256361 -2.765481 1.018278 0.140079 17.387080 7.125000 0.000000 0.000000 
-3.967332 17.095976 -5.862071 -178.619085 -2.511285 177.118165 -32.408655 23.243463 -15.807726 1.267654 9.301851 24.389682 -0.024999 4.103340 -13.161472 0.060300 1.585000 4.359900 25.186340 -22.085314 7.243723 -3.277788 -11.327354 35.108711 -0.772766 2.943537 0.328912 -0.443600 4.273200 -11.846600 0.787173 2.775385 -1.789399 -6.917773 1.232732 -0.391011 6.220647 19.916824 17.505832 -0.783300 10.802900 5.970300 -77.264233 -4.946926 37.884308 17.186129 -30.327154 -6.504116 0.101106 -2.557813 -24.952327 -7.125000 0.000000 0.000000 72.778128 -15.632466 19.424557 -7.967102 22.407685 -2.814624 1.021164 0.144675 17.166082 7.125000 0.000000 0.000000 
